<?xml version="1.0" encoding="UTF-8" standalone="no"?>
<!-- Created with Inkscape (http://www.inkscape.org/) -->

<svg
   xmlns:dc="http://purl.org/dc/elements/1.1/"
   xmlns:cc="http://creativecommons.org/ns#"
   xmlns:rdf="http://www.w3.org/1999/02/22-rdf-syntax-ns#"
   xmlns:svg="http://www.w3.org/2000/svg"
   xmlns="http://www.w3.org/2000/svg"
   xmlns:sodipodi="http://sodipodi.sourceforge.net/DTD/sodipodi-0.dtd"
   xmlns:inkscape="http://www.inkscape.org/namespaces/inkscape"
   width="64"
   height="64"
   id="svg5575"
   version="1.1"
   inkscape:version="0.91 r13725"
   viewBox="0 0 64 64"
   sodipodi:docname="o.svg">
  <defs
     id="defs5577" />
  <sodipodi:namedview
     id="base"
     pagecolor="#ffffff"
     bordercolor="#666666"
     borderopacity="1.0"
     inkscape:pageopacity="0.0"
     inkscape:pageshadow="2"
     inkscape:zoom="5.5"
     inkscape:cx="3.1818182"
     inkscape:cy="32"
     inkscape:current-layer="layer1"
     showgrid="true"
     inkscape:document-units="px"
     inkscape:grid-bbox="true"
     inkscape:window-width="2880"
     inkscape:window-height="1752"
     inkscape:window-x="0"
     inkscape:window-y="22"
     inkscape:window-maximized="1" />
  <metadata
     id="metadata5580">
    <rdf:RDF>
      <cc:Work
         rdf:about="">
        <dc:format>image/svg+xml</dc:format>
        <dc:type
           rdf:resource="http://purl.org/dc/dcmitype/StillImage" />
        <dc:title></dc:title>
      </cc:Work>
    </rdf:RDF>
  </metadata>
  <g
     id="layer1"
     inkscape:label="Layer 1"
     inkscape:groupmode="layer">
    <path
       style="fill:none;fill-rule:evenodd;stroke:#000000;stroke-width:5;stroke-linecap:butt;stroke-linejoin:miter;stroke-miterlimit:4;stroke-dasharray:none;stroke-opacity:1"
       d="M 26.727272,12.181818 C 26.424242,12.121212 26.121212,12.060606 25.818181,12 c -0.121212,-0.06061 -0.232163,-0.14895 -0.363636,-0.181818 -0.117593,-0.0294 -0.251094,0.04502 -0.363636,0 -0.202889,-0.08116 -0.342566,-0.282481 -0.545455,-0.363637 -0.112542,-0.04502 -0.255221,0.05421 -0.363636,0 -0.153323,-0.07666 -0.210314,-0.286975 -0.363637,-0.363636 -0.21683,-0.108415 -0.525563,0.134473 -0.727272,0 -0.112759,-0.07517 -0.06906,-0.288464 -0.181818,-0.363636 -0.100855,-0.06724 -0.242425,0 -0.363637,0 -0.06061,0 -0.121212,0 -0.181818,0 -0.484848,0 -0.969697,0 -1.454545,0 -0.303031,0 -0.606061,0 -0.909091,0 -0.06061,0 -0.138964,-0.04285 -0.181819,0 -0.04285,0.04285 0.04285,0.138963 0,0.181818 -0.04285,0.04285 -0.138963,-0.04285 -0.181818,0 -0.04285,0.04285 0.04285,0.138963 0,0.181818 -0.04285,0.04285 -0.138963,-0.04285 -0.181818,0 -0.04285,0.04285 0.05421,0.154714 0,0.181818 -0.108415,0.05421 -0.248644,-0.03833 -0.363636,0 -0.01825,0.0061 -0.695601,0.679765 -0.727273,0.727273 -0.07517,0.112759 -0.106646,0.250878 -0.181818,0.363636 -0.110769,0.166154 -0.252867,0.197483 -0.363637,0.363637 -0.07517,0.112759 -0.100506,0.255221 -0.181818,0.363636 -0.154278,0.205704 -0.402824,0.33151 -0.545454,0.545454 -0.150345,0.225518 -0.201014,0.510442 -0.363637,0.727273 -0.102852,0.137136 -0.286975,0.210314 -0.363636,0.363636 -0.05421,0.108416 0.07273,0.266667 0,0.363637 -0.131111,0.174814 -0.390939,0.20912 -0.545455,0.363636 -0.04285,0.04285 0,0.121212 0,0.181818 0,0.121212 0.05421,0.255221 0,0.363637 -0.07666,0.153322 -0.286975,0.210313 -0.363636,0.363636 -0.05421,0.108415 0.08571,0.277926 0,0.363636 -0.135519,0.13552 -0.439144,0.02235 -0.545454,0.181818 -0.07517,0.112759 0.208395,0.230749 0.181818,0.363637 -0.04285,0.214275 -0.25121,0.358077 -0.363637,0.545454 -0.139448,0.232414 -0.201013,0.510442 -0.363636,0.727273 C 14.260784,18.68259 14.076661,18.755768 14,18.90909 c -0.05421,0.108416 0.05421,0.255221 0,0.363637 -0.07666,0.153322 -0.286975,0.210314 -0.363637,0.363636 -0.05421,0.108416 0.05421,0.255221 0,0.363637 -0.07666,0.153322 -0.286975,0.210313 -0.363636,0.363636 -0.05421,0.108415 0.0294,0.246043 0,0.363636 -0.06574,0.262946 -0.2979,0.464327 -0.363636,0.727273 -0.0294,0.117593 0.03833,0.248644 0,0.363636 -0.0271,0.08131 -0.143488,0.105157 -0.181819,0.181819 -0.0271,0.05421 0.01917,0.124322 0,0.181818 -0.197836,0.593508 -0.237522,0.152407 -0.363636,0.909091 -0.02989,0.179344 0.03566,0.367167 0,0.545454 -0.05316,0.265775 -0.310481,0.461498 -0.363636,0.727273 -0.03566,0.178287 0.0575,0.372967 0,0.545454 -0.0691,0.207305 -0.320781,0.33118 -0.363636,0.545455 -0.02658,0.132888 0.181818,0.228117 0.181818,0.363636 0,0.13552 -0.138963,0.235072 -0.181818,0.363637 -0.07902,0.237062 -0.132812,0.48224 -0.181819,0.727272 -0.01189,0.05943 0.01917,0.124323 0,0.181819 -0.02363,0.07089 -0.363636,0.702001 -0.363636,0.727272 0,0.13552 0.181818,0.228117 0.181818,0.363637 0,0.135519 -0.14895,0.232163 -0.181818,0.363636 -0.0294,0.117593 0,0.242424 0,0.363636 0,0.484849 0,0.969697 0,1.454546 0,0.181818 0.03566,0.367167 0,0.545454 -0.02658,0.132888 -0.155241,0.230749 -0.181818,0.363637 -0.03566,0.178287 0,0.363636 0,0.545454 0,0.242425 0,0.484849 0,0.727273 0,1.030303 0,2.060606 0,3.090909 0,0.727273 0,1.454546 0,2.181818 0,0.242425 0,0.484849 0,0.727273 0,0.121212 -0.0294,0.246043 0,0.363636 0.03287,0.131473 0.112094,0.24743 0.181818,0.363637 0.296907,0.494844 0.545455,0.629098 0.545455,1.272727 0,0.249885 -0.222899,0.480788 -0.181819,0.727273 0.02818,0.169087 0.275442,0.216645 0.363637,0.363636 0.131324,0.218874 0.304202,1.094424 0.363636,1.272727 0.04285,0.128565 0.181818,0.228118 0.181818,0.363637 0,0.249885 -0.230824,0.48224 -0.181818,0.727273 0.02658,0.132887 0.26781,0.08599 0.363636,0.181818 0.121212,0.181818 0.242424,0.363636 0.363637,0.545454 -0.06061,0.121212 -0.242425,0.242425 -0.181819,0.363637 0.09773,0.195448 0.447731,0.168187 0.545455,0.363636 0.06061,0.121212 -0.232149,0.23781 -0.181818,0.363636 0.09549,0.238739 0.402824,0.33151 0.545454,0.545455 0.10631,0.159465 0.11064,0.367509 0.181818,0.545454 0.100662,0.251653 0.224189,0.49486 0.363637,0.727273 0.112427,0.187378 0.242424,0.363637 0.363636,0.545455 0.121212,0.181818 0.209121,0.390939 0.363637,0.545454 0.09583,0.09583 0.288463,0.06906 0.363636,0.181818 0.06724,0.100855 -0.08571,0.277927 0,0.363637 0.191653,0.191653 0.553758,0.155419 0.727273,0.363636 0.159972,0.191967 0.02572,0.532145 0.181818,0.727273 0.119725,0.149656 0.395798,0.06209 0.545454,0.181818 0.170634,0.136507 0.193003,0.408947 0.363637,0.545455 0.149656,0.119724 0.381113,0.08321 0.545454,0.181818 0.293983,0.176389 0.420628,0.57395 0.727273,0.727273 0.108415,0.05421 0.251094,-0.04502 0.363636,0 0.202889,0.08116 0.342566,0.28248 0.545455,0.363636 0.112543,0.04502 0.251094,-0.04502 0.363636,0 0.202889,0.08116 0.335344,0.303605 0.545455,0.363636 0.233097,0.0666 0.484848,0 0.727273,0 0.06061,0 0.12761,-0.0271 0.181818,0 0.195448,0.09772 0.363636,0.242425 0.545454,0.363637 0.242425,0.06061 0.497592,0.08338 0.727273,0.181818 0.20085,0.08608 0.329133,0.332733 0.545455,0.363636 0.247373,0.03534 0.480787,-0.222899 0.727272,-0.181818 0.169088,0.02818 0.210314,0.286975 0.363637,0.363636 0.223504,0.111752 0.497592,0.08338 0.727272,0.181819 0.20085,0.08608 0.335344,0.303604 0.545455,0.363636 0.233097,0.0666 0.487285,-0.03428 0.727273,0 0.624739,0.08925 0.853101,0.459964 1.454545,0.727273 0.228348,0.101488 0.484849,0.121212 0.727273,0.181818 0.242424,0.06061 0.48224,0.132811 0.727273,0.181818 0.361493,0.0723 0.741174,0.06524 1.090909,0.181818 0.207304,0.0691 0.33346,0.310638 0.545454,0.363637 0.293983,0.0735 0.607565,-0.03015 0.909091,0 0.307498,0.03075 0.601593,0.151068 0.909091,0.181818 0.542748,0.05427 1.095121,-0.06766 1.636364,0 0.247955,0.03099 0.478627,0.156953 0.727272,0.181818 0.361832,0.03618 0.727273,0 1.090909,0 0.787879,0 1.575758,0 2.363637,0 1.636363,0 3.272727,0 4.909091,0 0.30303,0 0.60606,0 0.909091,0 0.30303,0 0.607914,0.03346 0.909091,0 1.028761,-0.114307 0.461962,-0.214594 1.454545,-0.545455 0.293173,-0.09772 0.619736,-0.07331 0.909091,-0.181818 0.204605,-0.07673 0.340849,-0.286909 0.545454,-0.363636 0.289356,-0.108508 0.609287,-0.106867 0.909091,-0.181818 0.185931,-0.04648 0.359524,-0.135336 0.545455,-0.181819 0.299804,-0.07495 0.657622,-0.0022 0.909091,-0.181818 0.220553,-0.157538 0.157848,-0.550883 0.363636,-0.727272 0.247802,-0.212402 0.617174,-0.217678 0.909091,-0.363637 0.07666,-0.03833 0.11489,-0.128275 0.181818,-0.181818 0.236627,-0.189302 0.480687,-0.369322 0.727273,-0.545455 0.177816,-0.127011 0.408947,-0.193002 0.545455,-0.363636 0.119724,-0.149656 0.0285,-0.430463 0.181818,-0.545454 0.145454,-0.109091 0.394172,0.100854 0.545454,0 0.252137,-0.168091 0.356153,-0.490646 0.545455,-0.727273 0.05354,-0.06693 0.134275,-0.110503 0.181818,-0.181818 0.07517,-0.112759 0.06906,-0.288464 0.181818,-0.363637 0.100855,-0.06724 0.325306,0.114992 0.363637,0 0.06061,-0.181818 -0.228301,-0.359523 -0.181819,-0.545454 0.03287,-0.131473 0.320782,-0.05325 0.363637,-0.181818 0.04286,-0.128565 -0.224673,-0.235072 -0.181818,-0.363637 0.242424,-0.727273 0.545454,0.424243 0.545454,-0.545454 0,-0.13552 -0.181818,-0.228117 -0.181818,-0.363637 0,-0.135519 0.14895,-0.232163 0.181818,-0.363636 0.112941,-0.451765 -0.112941,-0.275508 0,-0.727273 0.03287,-0.131473 0.14895,-0.232163 0.181818,-0.363636 0.0588,-0.235186 -0.0588,-0.492087 0,-0.727273 0.03287,-0.131473 0.181818,-0.228117 0.181818,-0.363636 0,-0.752377 -0.56016,0.589571 -0.181818,-0.545455 0.0271,-0.08131 0.154715,-0.100506 0.181818,-0.181818 0.08275,-0.248253 -0.08275,-0.842656 0,-1.090909 C 55.845281,44.282326 56,44.267526 56,44.181818 c 0,-0.13552 -0.14895,-0.232164 -0.181819,-0.363637 -0.02267,-0.09069 -0.01964,-0.99269 0,-1.090909 0.03759,-0.187931 0.144232,-0.357523 0.181819,-0.545454 0.03627,-0.181357 0,-1.354628 0,-1.454546 0,-1.090909 0,-2.181818 0,-3.272727 0,-0.606061 0,-1.212121 0,-1.818182 0,-0.30303 0,-0.60606 0,-0.909091 0,-0.181818 0.02989,-0.36611 0,-0.545454 -0.01008,-0.0605 -0.363637,-1.059799 -0.363637,-1.090909 0,-0.13552 0.181818,-0.228117 0.181818,-0.363637 0,-0.191653 -0.144231,-0.357523 -0.181818,-0.545454 -0.02377,-0.118859 0.0294,-0.246044 0,-0.363637 -0.04927,-0.197061 -0.545454,-0.960107 -0.545454,-1.090909 0,-0.135519 0.204097,-0.229961 0.181818,-0.363636 0.508015,-0.707068 -0.459745,-0.566251 -0.545455,-0.909091 -0.0441,-0.17639 0.02571,-0.365464 0,-0.545455 -0.03534,-0.247373 -0.121212,-0.484848 -0.181818,-0.727272 -0.06061,-0.242425 -0.07007,-0.503769 -0.181818,-0.727273 C 54.286975,27.301222 54.088194,27.2379 54,27.090909 53.901395,26.926567 53.878788,26.727272 53.818181,26.545454 53.696969,26.181818 53.589133,25.813446 53.454545,25.454545 53.312577,25.075965 53.051058,24.742216 52.909091,24.363636 52.82135,24.129661 52.806293,23.873425 52.727272,23.636363 52.684417,23.507798 52.60606,23.393939 52.545454,23.272727 52.363636,23.151515 52.097724,23.104539 52,22.90909 c -0.06061,-0.121212 0.242424,-0.242424 0.181818,-0.363636 -0.09772,-0.195449 -0.414344,-0.188822 -0.545455,-0.363636 -0.07273,-0.09697 0,-0.242425 0,-0.363637 0,-0.06061 0.04285,-0.138963 0,-0.181818 -0.154515,-0.154516 -0.44773,-0.168188 -0.545454,-0.363636 -0.06061,-0.121212 0.224673,-0.235072 0.181818,-0.363637 -0.04285,-0.128564 -0.250878,-0.106645 -0.363636,-0.181818 -0.07131,-0.04754 -0.121213,-0.121212 -0.181819,-0.181818 -0.06061,-0.06061 -0.154714,-0.100507 -0.181818,-0.181818 -0.03833,-0.114992 0.06724,-0.262782 0,-0.363636 -0.07517,-0.112759 -0.250877,-0.106646 -0.363636,-0.181819 -0.124285,-0.08286 -0.691808,-0.674075 -0.727273,-0.727272 -0.03362,-0.05043 0.0271,-0.127611 0,-0.181819 -0.02414,-0.04827 -0.49718,-0.521317 -0.545454,-0.545454 -0.05421,-0.0271 -0.127611,0.0271 -0.181819,0 C 48.450451,18.225225 48.620813,18 48.181818,18 48.096108,18 48.060606,18.121212 48,18.181818 47.878788,18.060606 47.798986,17.872389 47.636363,17.818181 47.555053,17.791081 47.531206,18.03833 47.454545,18 c -0.121212,-0.06061 -0.05325,-0.320782 -0.181818,-0.363637 -0.128565,-0.04285 -0.235072,0.224673 -0.363636,0.181818 -0.128565,-0.04285 -0.08599,-0.267809 -0.181819,-0.363636 -0.04286,-0.04285 -0.12761,0.0271 -0.181818,0 -0.07666,-0.03833 -0.110503,-0.134275 -0.181818,-0.181818 C 46.250877,17.197557 46.112758,17.166081 46,17.090909 45.92869,17.043369 45.90389,16.90909 45.818181,16.90909 c -0.08571,0 -0.105156,0.220149 -0.181818,0.181819 -0.121212,-0.06061 -0.106645,-0.250878 -0.181818,-0.363637 -0.04754,-0.07132 -0.121212,-0.121212 -0.181818,-0.181818 -0.06061,-0.06061 -0.09611,-0.181818 -0.181818,-0.181818 -0.08571,0 -0.100507,0.208922 -0.181818,0.181818 -0.162624,-0.05421 -0.226501,-0.260784 -0.363637,-0.363636 -0.32,-0.24 -0.770909,-0.305455 -1.090909,-0.545455 -0.137136,-0.102852 -0.197335,-0.322061 -0.363636,-0.363636 -0.131473,-0.03287 -0.242425,0.242424 -0.363637,0.181818 -0.195448,-0.09772 -0.20912,-0.390939 -0.363636,-0.545455 -0.04286,-0.04285 -0.12761,0.0271 -0.181818,0 -0.421764,0.04882 -0.467427,-0.389546 -0.727273,-0.545454 C 41.222131,14.224188 40.978925,14.100661 40.727272,14 c -0.05627,-0.02251 -0.131391,0.03362 -0.181818,0 -0.14263,-0.09509 -0.2265,-0.260785 -0.363636,-0.363637 C 39.964987,13.47374 39.671376,13.43535 39.454545,13.272727 39.317409,13.169875 39.259,12.942709 39.090909,12.909091 38.902977,12.871505 38.727272,13.151515 38.545454,13.090909 38.301519,13.009598 38.200784,12.706082 38,12.545455 37.665252,12.277657 37.119521,12.235349 36.727272,12 c -0.341526,-0.204916 -0.882668,-0.649261 -1.272727,-0.727273 -0.08405,-0.01681 -0.105157,0.220149 -0.181818,0.181818 -0.229984,-0.114991 -0.33151,-0.402824 -0.545455,-0.545454 -0.159465,-0.10631 -0.367509,-0.11064 -0.545454,-0.181818 -0.271651,-0.10866 -0.607584,-0.363637 -0.909091,-0.363637 -0.135519,0 -0.235072,0.224673 -0.363636,0.181819 -0.128565,-0.04286 -0.06906,-0.288464 -0.181819,-0.363637 -0.100854,-0.06724 -0.246043,0.0294 -0.363636,0 -0.07993,-0.01998 -0.684986,-0.3636361 -0.727273,-0.3636361 -0.08571,0 -0.121212,0.1212121 -0.181818,0.1818181 -0.121212,0 -0.246043,0.0294 -0.363636,0 -0.131473,-0.032868 -0.235072,-0.1389632 -0.363637,-0.1818181 -0.120254,-0.040085 -0.912297,0 -1.090909,0 -0.666666,0 -1.333333,0 -2,0 -0.363636,0 -0.727272,0 -1.090909,0 -0.121212,0 -0.242424,0 -0.363636,0 -0.121212,0 -0.248645,-0.038331 -0.363637,0 -0.08131,0.027104 -0.09867,0.1610304 -0.181818,0.1818181 -1.387025,0 0.143428,-0.081311 -0.909091,0.181818 -0.117593,0.0294 -0.266666,-0.07273 -0.363636,0 -0.174815,0.131111 -0.188822,0.414344 -0.363636,0.545455 -0.09697,0.07273 -0.242425,0 -0.363637,0 -0.121212,0.06061 -0.267809,0.08599 -0.363636,0.181818 -0.09583,0.09583 -0.100507,0.255221 -0.181818,0.363636 -0.393209,0.524278 -0.262693,0.235735 -0.727273,0.545455 -0.267541,0.17836 -0.459732,0.548912 -0.727273,0.727273 -0.112759,0.07517 -0.250877,0.106645 -0.363636,0.181818 -0.07131,0.04754 -0.121212,0.121212 -0.181818,0.181818 -0.06061,0.121212 -0.0734,0.282325 -0.181818,0.363636 -0.153323,0.114992 -0.392132,0.06683 -0.545455,0.181818 -0.108415,0.08131 -0.112094,0.24743 -0.181818,0.363636 -0.112427,0.187378 -0.193002,0.408948 -0.363637,0.545455 -0.149656,0.119725 -0.395798,0.06209 -0.545454,0.181818 -0.170634,0.136507 -0.209121,0.390939 -0.363636,0.545455 -1.656915,1.656914 0.651146,-1.249447 -0.909091,1.090909 -0.09509,0.14263 -0.252078,0.233484 -0.363637,0.363636 -0.252551,0.294643 -0.471728,0.61704 -0.727272,0.909091 -0.169322,0.19351 -0.413163,0.324968 -0.545455,0.545455 -0.06236,0.103938 0.06236,0.259697 0,0.363636 -0.132292,0.220487 -0.430463,0.315471 -0.545455,0.545454 -0.08131,0.162624 0.06753,0.376641 0,0.545455 -0.06366,0.159159 -0.268549,0.221006 -0.363636,0.363636 -0.150345,0.225518 -0.224188,0.494859 -0.363636,0.727273 -0.0441,0.0735 -0.143488,0.105157 -0.181818,0.181818 -0.08571,0.17142 -0.08321,0.381114 -0.181819,0.545455 -0.08819,0.146991 -0.330018,0.195545 -0.363636,0.363636 -0.03759,0.187932 0.228301,0.359524 0.181818,0.545455 -0.08571,0.342839 -0.387413,0.593008 -0.545454,0.909091 -0.08571,0.171419 -0.121212,0.363636 -0.181819,0.545454"
       id="path6125"
       inkscape:connector-curvature="0" />
  </g>
</svg>
