<?xml version="1.0" encoding="UTF-8" standalone="no"?>
<!-- Created with Inkscape (http://www.inkscape.org/) -->

<svg
   xmlns:dc="http://purl.org/dc/elements/1.1/"
   xmlns:cc="http://creativecommons.org/ns#"
   xmlns:rdf="http://www.w3.org/1999/02/22-rdf-syntax-ns#"
   xmlns:svg="http://www.w3.org/2000/svg"
   xmlns="http://www.w3.org/2000/svg"
   xmlns:sodipodi="http://sodipodi.sourceforge.net/DTD/sodipodi-0.dtd"
   xmlns:inkscape="http://www.inkscape.org/namespaces/inkscape"
   width="64"
   height="64"
   id="svg4981"
   version="1.1"
   inkscape:version="0.91 r13725"
   viewBox="0 0 64 64"
   sodipodi:docname="x.svg">
  <defs
     id="defs4983" />
  <sodipodi:namedview
     id="base"
     pagecolor="#ffffff"
     bordercolor="#666666"
     borderopacity="1.0"
     inkscape:pageopacity="0.0"
     inkscape:pageshadow="2"
     inkscape:zoom="5.5"
     inkscape:cx="3.1818182"
     inkscape:cy="32"
     inkscape:current-layer="layer1"
     showgrid="true"
     inkscape:document-units="px"
     inkscape:grid-bbox="true"
     inkscape:window-width="2880"
     inkscape:window-height="1752"
     inkscape:window-x="0"
     inkscape:window-y="22"
     inkscape:window-maximized="1" />
  <metadata
     id="metadata4986">
    <rdf:RDF>
      <cc:Work
         rdf:about="">
        <dc:format>image/svg+xml</dc:format>
        <dc:type
           rdf:resource="http://purl.org/dc/dcmitype/StillImage" />
        <dc:title></dc:title>
      </cc:Work>
    </rdf:RDF>
  </metadata>
  <g
     id="layer1"
     inkscape:label="Layer 1"
     inkscape:groupmode="layer">
    <path
       style="fill:none;fill-rule:evenodd;stroke:#000000;stroke-width:5;stroke-linecap:butt;stroke-linejoin:miter;stroke-opacity:1;stroke-miterlimit:4;stroke-dasharray:none"
       d="m 11.636364,12.363636 c 0.242424,0.303031 0.452867,0.634686 0.727272,0.909091 0.154516,0.154516 0.390939,0.209121 0.545455,0.363637 0.09583,0.09583 0.08599,0.267809 0.181818,0.363636 0.214275,0.214275 0.494478,0.351459 0.727273,0.545455 0.131688,0.10974 0.242424,0.242424 0.363636,0.363636 0.424243,0.424242 0.848485,0.848485 1.272727,1.272727 0.181819,0.181818 0.363637,0.363637 0.545455,0.545455 0.121212,0.121212 0.224146,0.264 0.363636,0.363636 0.287566,0.205404 0.637609,0.319219 0.909091,0.545455 0.104109,0.08676 0.07771,0.276879 0.181818,0.363636 0.271483,0.226235 0.615052,0.349428 0.909091,0.545455 0.252137,0.168091 0.497195,0.348245 0.727273,0.545454 0.195228,0.167338 0.363636,0.363636 0.545455,0.545455 C 19.757576,19.757576 19.86051,19.900364 20,20 c 0.638479,0.456057 1.383295,0.779363 2,1.272727 0.133856,0.107085 0.22978,0.256552 0.363636,0.363637 0.170634,0.136507 0.355728,0.255221 0.545455,0.363636 0.235327,0.134473 0.515627,0.19432 0.727273,0.363636 0.105822,0.08466 0.07599,0.278979 0.181818,0.363637 0.211645,0.169316 0.506719,0.206098 0.727273,0.363636 0.209235,0.149454 0.33975,0.391177 0.545454,0.545455 0.04848,0.03636 0.138963,-0.04285 0.181818,0 0.154516,0.154515 0.185821,0.418443 0.363637,0.545454 0.265581,0.189701 0.617173,0.217678 0.909091,0.363637 0.16667,0.08333 0.513866,0.687788 0.545454,0.727272 0.107085,0.133857 0.231948,0.253896 0.363636,0.363637 0.232795,0.193995 0.464169,0.395109 0.727273,0.545454 0.166402,0.09509 0.409935,0.0463 0.545455,0.181818 0.191653,0.191654 0.171983,0.53562 0.363636,0.727273 0.191653,0.191653 0.53562,0.171983 0.727273,0.363636 C 29.953701,27.590065 29.901395,27.835659 30,28 c 0.183369,0.305615 0.92396,0.742141 1.090909,0.909091 0.09583,0.09583 0.08599,0.26781 0.181818,0.363636 0.214275,0.214275 0.490646,0.356153 0.727273,0.545455 0.06693,0.05354 0.11489,0.128275 0.181818,0.181818 0.236627,0.189302 0.533278,0.31266 0.727273,0.545455 0.122693,0.147232 0.0463,0.409935 0.181818,0.545454 0.191653,0.191653 0.519055,0.190122 0.727273,0.363636 0.16787,0.139892 0.20912,0.390939 0.363636,0.545455 0.214275,0.214275 0.490646,0.356153 0.727273,0.545455 0.06693,0.05354 0.121212,0.121212 0.181818,0.181818 0.242424,0.242424 0.484849,0.484848 0.727273,0.727272 0.06061,0.06061 0.130392,0.113251 0.181818,0.181819 0.131111,0.174814 0.209121,0.390938 0.363636,0.545454 1.108963,0.739308 0.168188,-0.01817 0.727273,0.727273 0.470601,0.627468 1.367743,0.960706 1.818182,1.636364 0.10631,0.159465 0.121212,0.363636 0.181818,0.545454 0.181818,0.121212 0.405563,0.195766 0.545455,0.363636 0.173514,0.208218 0.171983,0.53562 0.363636,0.727273 0.191653,0.191653 0.53562,0.171983 0.727273,0.363637 1.607691,1.607691 -0.541148,-0.0312 0.545454,1.272727 0.193996,0.232794 0.559182,0.293318 0.727273,0.545454 0.100855,0.151282 -0.113581,0.403479 0,0.545455 0.169316,0.211645 0.53562,0.171983 0.727273,0.363636 0.08571,0.08571 -0.05421,0.255221 0,0.363637 0.06377,0.127547 0.704696,0.636965 0.727272,0.727272 0.03287,0.131473 -0.242424,0.242425 -0.181818,0.363637 0.09772,0.195448 0.414344,0.188821 0.545455,0.363636 0.07273,0.09697 -0.03833,0.248645 0,0.363636 0.06962,0.208852 0.434077,0.25226 0.545454,0.363637 0.08571,0.08571 -0.08571,0.277926 0,0.363636 0.09583,0.09583 0.26781,0.08599 0.363637,0.181818 0.09583,0.09583 0.138963,0.235072 0.181818,0.363637 0.01917,0.0575 -0.04285,0.138963 0,0.181818 0.221451,0.221451 0.40622,0.08517 0.545454,0.363636 0.0271,0.05421 0,0.121212 0,0.181818 0.06061,0.06061 0.143488,0.105157 0.181819,0.181819 0.0271,0.05421 -0.04286,0.138963 0,0.181818 C 45.73219,45.914008 45.904173,45.904173 46,46 c 0.04286,0.04286 -0.04286,0.138963 0,0.181818 0.09583,0.09583 0.30303,0.06061 0.363636,0.181818 0.03833,0.07666 -0.267528,0.181819 -0.181818,0.181819 0.135519,0 0.242424,-0.242425 0.363637,-0.181819 0.108415,0.05421 -0.08571,0.277927 0,0.363637 0.08571,0.08571 0.277926,-0.08571 0.363636,0 0.08571,0.08571 -0.05421,0.255221 0,0.363636 0.0271,0.05421 0.138963,-0.04286 0.181818,0 0.09583,0.09583 0.106646,0.250878 0.181818,0.363636 0.04754,0.07131 0.105157,0.143488 0.181818,0.181819 0.05421,0.0271 0.154715,-0.05421 0.181819,0 0.05421,0.108415 -0.06724,0.262781 0,0.363636 0.07517,0.112759 0.250877,0.106646 0.363636,0.181818 0.603015,0.40201 0,0.05642 0,0.181818 0,0.08571 0.09611,0.181819 0.181818,0.181819 0.08571,0 0.09611,-0.181819 0.181818,-0.181819 0.121212,0 -0.108415,0.309429 0,0.363637 0.108416,0.05421 0.255221,-0.05421 0.363637,0 0.05421,0.0271 0.06061,0.181818 0,0.181818 -0.06061,0 -0.04285,-0.224673 0,-0.181818 0.563716,1.127432 0.02315,0.181818 0.181818,0.181818 0.06061,0 -0.04285,0.138963 0,0.181818 0.09583,0.09583 0.228117,0.181818 0.363636,0.181818 0.08571,0 -0.09611,-0.181818 -0.181818,-0.181818 -0.06061,0 -0.04286,0.138963 0,0.181818 0.09583,0.09583 0.26781,0.08599 0.363636,0.181818 0.04285,0.04285 -0.224673,-0.04286 -0.181818,0 0.09583,0.09583 0.228117,0.181819 0.363637,0.181819 0.08571,0 -0.267528,-0.181819 -0.181819,-0.181819 0.13552,0 0.303031,0.06061 0.363637,0.181819 0.03833,0.07666 -0.121212,0.242424 -0.181818,0.181818 -0.06061,-0.06061 0.121212,-0.242424 0.181818,-0.181818 0.144024,0.144023 -0.269439,0.814893 0.363636,0.181818 C 50.262626,49.737374 49.676768,49.838384 50,50 c 0.108415,0.05421 0.277926,-0.08571 0.363636,0 0.06061,0.06061 -0.09611,0.181818 -0.181818,0.181818 -0.06061,0 -0.06061,-0.181818 0,-0.181818 0.08571,0 0.143488,0.105157 0.181818,0.181818 0.0271,0.05421 -0.06061,0.181818 0,0.181818 0.138411,0 0.363637,-0.697474 0.363637,0.181819 0,0.08571 -0.242425,-0.121213 -0.181818,-0.181819 0.06061,-0.06061 0.121212,0.121212 0.181818,0.181819 0.06061,0.06061 0.242424,0.121212 0.181818,0.181818 -0.06061,0.06061 -0.181818,-0.267528 -0.181818,-0.181818 0,0.135519 0.08599,0.267809 0.181818,0.363636 0.04286,0.04286 -0.04285,-0.224673 0,-0.181818 0.09583,0.09583 0.06061,0.30303 0.181818,0.363636 0.07666,0.03833 0.121212,-0.242424 0.181818,-0.181818 0.121212,1.030303 -0.06061,0.181818 0,0.181818 0.121212,0 -0.121212,0.363636 0,0.363636 0.08571,0 0.09611,-0.181818 0.181818,-0.181818 0.08571,0 0.181819,0.09611 0.181819,0.181818 0,0.06061 -0.138964,-0.04286 -0.181819,0 -0.04286,0.04285 -0.05421,0.154715 0,0.181819 0.108416,0.05421 0.277927,-0.08571 0.363637,0 0.06061,0.06061 -0.181818,0.09611 -0.181818,0.181818 0,0.08571 0.09611,0.181818 0.181818,0.181818 0.06061,0 0,-0.121212 0,-0.181818 0.121212,0.121212 0.286975,0.210314 0.363636,0.363636 0.0271,0.05421 -0.181818,0.06061 -0.181818,0 0,-0.06061 0.154714,-0.05421 0.181818,0 0.05421,0.108416 0,0.242424 0,0.363637 0,0.06061 0,-0.242425 0,-0.181819 0,0.121212 -0.08571,0.277927 0,0.363637 0.242424,-0.242425 0.121212,-0.242425 0.363637,0"
       id="path5529"
       inkscape:connector-curvature="0" />
    <path
       style="fill:none;fill-rule:evenodd;stroke:#000000;stroke-width:5;stroke-linecap:butt;stroke-linejoin:miter;stroke-opacity:1;stroke-miterlimit:4;stroke-dasharray:none"
       d="M 11.272727,52.727273 C 12.591015,50.090698 10.889421,53.302232 12,51.636364 c 0.150345,-0.225518 0.171983,-0.53562 0.363636,-0.727273 0.191654,-0.191653 0.515628,-0.19432 0.727273,-0.363636 0.105823,-0.08466 0.114582,-0.245973 0.181818,-0.363637 0.175331,-0.306829 0.328494,-0.630141 0.545455,-0.909091 0.139677,-0.686365 0.915017,-0.661657 1.272727,-1.090909 0.173515,-0.208217 0.201013,-0.510442 0.363636,-0.727273 0.205704,-0.274271 0.501512,-0.469259 0.727273,-0.727272 0.199547,-0.228054 0.33118,-0.512998 0.545455,-0.727273 0.214275,-0.214275 0.512998,-0.33118 0.727272,-0.545455 1.437092,-1.437091 -0.29449,-0.08524 1.09091,-1.272727 0.230077,-0.197209 0.530063,-0.315377 0.727272,-0.545454 1.573476,-1.835722 -1.164416,0.47859 1.090909,-1.454546 0.861837,-0.738717 0.42051,0.09082 1.272728,-1.272727 0.101576,-0.162522 0.0463,-0.409935 0.181818,-0.545455 0.249885,-0.249885 0.621525,-0.34005 0.909091,-0.545454 0.13949,-0.09964 0.252078,-0.233485 0.363636,-0.363637 0.320733,-0.374188 0.679749,-0.930093 1.090909,-1.272727 2.909091,-2.424242 -1.393939,1.39394 1.272727,-1.272727 0.214275,-0.214275 0.494479,-0.351459 0.727273,-0.545455 0.131689,-0.10974 0.231948,-0.253896 0.363637,-0.363636 0.232794,-0.193995 0.512997,-0.33118 0.727272,-0.545455 0.214275,-0.214274 0.33118,-0.512997 0.545455,-0.727272 0.0047,-0.0047 1.440392,-1.079115 1.454545,-1.090909 0.242425,-0.202021 0.69697,-0.757576 0.909091,-0.909091 0.220553,-0.157538 0.501755,-0.213292 0.727273,-0.363637 C 31.393559,32.040658 31.500798,31.39043 32,31.090909 c 0.164341,-0.0986 0.409935,-0.0463 0.545455,-0.181818 0.191653,-0.191653 0.171983,-0.53562 0.363636,-0.727273 0.08571,-0.08571 0.266667,0.07273 0.363636,0 0.174815,-0.131111 0.209121,-0.390939 0.363637,-0.545454 0.09583,-0.09583 0.255221,-0.100507 0.363636,-0.181819 0.137136,-0.102851 0.226501,-0.260784 0.363636,-0.363636 0.108416,-0.08131 0.26781,-0.08599 0.363637,-0.181818 0.70085,-0.700851 -0.680621,-0.06435 0.727272,-0.909091 0.103939,-0.06236 0.262782,0.06724 0.363637,0 0.112759,-0.07517 0.08599,-0.26781 0.181818,-0.363636 0.09583,-0.09583 0.250878,-0.106646 0.363636,-0.181819 0.14263,-0.09509 0.242425,-0.242424 0.363637,-0.363636 0.181818,-0.181818 0.363636,-0.363636 0.545454,-0.545454 0.06061,-0.06061 0.121212,-0.121213 0.181818,-0.181819 0.06061,-0.06061 0.143488,-0.105157 0.181819,-0.181818 0.0271,-0.05421 -0.04286,-0.138963 0,-0.181818 0.09583,-0.09583 0.267809,-0.08599 0.363636,-0.181818 0.04286,-0.04285 -0.0271,-0.127611 0,-0.181818 0.03833,-0.07666 0.134275,-0.110504 0.181818,-0.181819 0.07517,-0.112758 0.106646,-0.250877 0.181818,-0.363636 0.178361,-0.267541 0.548913,-0.459732 0.727273,-0.727273 0.03362,-0.05043 -0.0271,-0.12761 0,-0.181818 0.08355,-0.167101 0.681286,-0.589311 0.727273,-0.727273 0.03833,-0.114991 -0.08571,-0.277926 0,-0.363636 0.08571,-0.08571 0.255221,0.05421 0.363636,0 0.108416,-0.05421 -0.06724,-0.262782 0,-0.363636 0.09509,-0.14263 0.286975,-0.210314 0.363637,-0.363637 0.0271,-0.05421 -0.224674,0.04285 -0.181819,0 0.09583,-0.09583 0.303031,-0.06061 0.363637,-0.181818 C 40.765603,22.105157 40.459745,22 40.545455,22 c 0.135519,0 0.242424,0.242424 0.363636,0.181818 0.108415,-0.05421 -0.05421,-0.255221 0,-0.363636 0.0271,-0.05421 0.138963,0.04285 0.181818,0 0.04285,-0.04285 -0.04286,-0.138963 0,-0.181818 0.04285,-0.04285 0.181818,0.06061 0.181818,0 0,-0.08571 -0.220149,-0.105157 -0.181818,-0.181819 0.06061,-0.121212 0.250878,-0.106645 0.363636,-0.181818 0.165512,-0.110341 0.384303,-0.464878 0.545455,-0.545454 0.05421,-0.0271 0.12761,0.0271 0.181818,0 0.40201,-0.201005 0.05642,-0.112844 0.181818,-0.363637 0.03833,-0.07666 0.121212,-0.121212 0.181819,-0.181818 0.06061,-0.06061 0.105156,-0.143487 0.181818,-0.181818 0.05421,-0.0271 0.12761,0.0271 0.181818,0 0.04828,-0.02414 0.521317,-0.49718 0.545454,-0.545455 0.0271,-0.05421 -0.0271,-0.12761 0,-0.181818 0.378342,-0.756683 -0.01255,0.19437 0.363637,-0.181818 0.09583,-0.09583 0.106645,-0.250877 0.181818,-0.363636 0.04754,-0.07132 0.143488,-0.105157 0.181818,-0.181818 0.223905,-0.44781 -0.52777,0.164133 0.181818,-0.545455 0.04286,-0.04285 0.138964,0.04285 0.181819,0 0.01165,-0.01165 0.341058,-0.693405 0.363636,-0.727273 0.04754,-0.07131 0.143487,-0.105157 0.181818,-0.181818 0.0271,-0.05421 -0.0271,-0.12761 0,-0.181818 0.03833,-0.07666 0.121212,-0.121212 0.181818,-0.181818 0.06061,-0.06061 0.105157,-0.143488 0.181818,-0.181818 0.05421,-0.0271 0.138964,0.04285 0.181819,0 0.04286,-0.04285 -0.0271,-0.127611 0,-0.181819 0.03833,-0.07666 0.121212,-0.121212 0.181818,-0.181818 C 45.878788,16.121212 45.939394,16.060606 46,16 c 0.06061,-0.06061 0.181818,-0.09611 0.181818,-0.181818 0,-0.06061 -0.181818,0.06061 -0.181818,0 0,-0.06061 0.12761,0.0271 0.181818,0 0.756684,-0.378342 -0.10866,-0.07316 0,-0.181818 0.09583,-0.09583 0.30303,-0.06061 0.363637,-0.181819 0.03833,-0.07666 -0.181819,-0.09611 -0.181819,-0.181818 0,-0.06061 0.127611,0.0271 0.181819,0 0.07666,-0.03833 0.143487,-0.105157 0.181818,-0.181818 0.0271,-0.05421 -0.0271,-0.12761 0,-0.181818 0.03833,-0.07666 0.121212,-0.121212 0.181818,-0.181818 0.06061,-0.06061 0.105157,-0.143488 0.181818,-0.181818 0.05421,-0.0271 0.138963,0.04285 0.181818,0 0.04285,-0.04286 -0.0271,-0.127611 0,-0.181819 0.108239,-0.216477 0.363637,-0.253719 0.363637,-0.181818 0,0.06061 -0.181819,0.06061 -0.181819,0 C 47.454545,13.860715 48,14.068988 48,14 c 0,-0.08571 -0.181818,-0.09611 -0.181818,-0.181818 0,-0.06061 0.12761,0.0271 0.181818,0 0.07666,-0.03833 0.181818,-0.09611 0.181818,-0.181818 0,-0.06061 -0.181818,0.06061 -0.181818,0 0,-0.06061 0.12761,0.0271 0.181818,0 0.07666,-0.03833 0.121212,-0.121212 0.181818,-0.181819 0.06061,-0.06061 0.181819,-0.09611 0.181819,-0.181818 0,-0.06061 -0.181819,0.06061 -0.181819,0 0,-0.121212 0.363637,0.121212 0.363637,0 0,-0.08571 -0.181818,-0.09611 -0.181818,-0.181818 0,-0.121212 0.25522,0.05421 0.363636,0 0.07666,-0.03833 0.181818,-0.09611 0.181818,-0.181818 0,-0.06061 -0.242424,0 -0.181818,0 0.121212,0 0.277926,0.08571 0.363636,0 0.06061,-0.06061 -0.242424,-0.121212 -0.181818,-0.181818 0.08571,-0.08571 0.242424,0 0.363636,0 0.06061,0 -0.181818,0.06061 -0.181818,0 0,-0.06061 0.127611,0.0271 0.181818,0 0.07666,-0.03833 0.110504,-0.134275 0.181819,-0.181818 0.112758,-0.07517 0.250877,-0.106646 0.363636,-0.181819 0.33701,-0.224673 0.01667,-0.181818 0.363636,-0.181818 0.06061,0 0.181819,-0.06061 0.181819,0 0,0.06061 -0.181819,0.06061 -0.181819,0 0,-0.06061 0.121212,0 0.181819,0 0.06061,0 0.181818,-0.06061 0.181818,0 0,0.06061 -0.181818,0.06061 -0.181818,0 0,-0.08571 0.105156,-0.143487 0.181818,-0.181818 0.10866,-0.05433 0.363636,0.119689 0.363636,-0.181818 0,-0.06061 -0.181818,0.06061 -0.181818,0 0,-0.06061 0.138963,0.04285 0.181818,0 0.04285,-0.04285 -0.04286,-0.138963 0,-0.181818 0.06061,0 0.181818,-0.06061 0.181818,0 0,0.06061 -0.224673,0.04285 -0.181818,0 0.09583,-0.09583 0.26781,-0.08599 0.363636,-0.181819 0.04285,-0.04285 -0.242424,0 -0.181818,0 0.121212,0 0.242425,0 0.363637,0 0.06061,0 -0.121212,0 -0.181819,0"
       id="path5531"
       inkscape:connector-curvature="0" />
  </g>
</svg>
